<svg width="999" height="1681" viewBox="0 0 999 1681" fill="none" xmlns="http://www.w3.org/2000/svg">
<path d="M999 329.69C999 311.472 991.763 294.001 978.881 281.119C965.999 268.237 948.528 261 930.31 261H818C818 261 845 154.5 711.5 154.5C708.5 154.5 537.99 144.23 500.27 28.08C500.267 26.7156 500.177 25.3529 500 24C499.84 24.55 499.67 25.1 499.5 25.65C499.33 25.1 499.16 24.55 499 24C498.823 25.3529 498.733 26.7156 498.73 28.08C461 144.23 290.47 154.5 287.5 154.5C154 154.5 181 261 181 261H68.69C50.4723 261 33.0007 268.237 20.1188 281.119C7.23696 294.001 0 311.472 0 329.69L0 1681H999V329.69Z" fill="url(#paint0_linear_110_788)"/>
<path d="M942 248.83H827.12C827.12 248.83 841.68 149.98 726.4 146.4C726.84 146.25 544.24 145.16 500.13 7.4V7L500.07 7.18L500 7V7.35C455.92 145.16 273.28 146.25 273.72 146.35C158.44 149.98 173 248.83 173 248.83H58" stroke="url(#paint1_linear_110_788)" stroke-width="2" stroke-miterlimit="10"/>
<defs>
<linearGradient id="paint0_linear_110_788" x1="472.146" y1="102.747" x2="478" y2="1826" gradientUnits="userSpaceOnUse">
<stop stop-color="#FDF1DD"/>
<stop offset="0.684464" stop-color="#1A9094"/>
<stop offset="1" stop-color="#08292C"/>
</linearGradient>
<linearGradient id="paint1_linear_110_788" x1="58" y1="125.15" x2="942" y2="125.15" gradientUnits="userSpaceOnUse">
<stop stop-color="#FFD100" stop-opacity="0.04"/>
<stop offset="0.02" stop-color="#FFD100" stop-opacity="0.22"/>
<stop offset="0.05" stop-color="#FFD100" stop-opacity="0.39"/>
<stop offset="0.07" stop-color="#FFD100" stop-opacity="0.53"/>
<stop offset="0.1" stop-color="#FFD100" stop-opacity="0.66"/>
<stop offset="0.13" stop-color="#FFD100" stop-opacity="0.77"/>
<stop offset="0.16" stop-color="#FFD100" stop-opacity="0.85"/>
<stop offset="0.2" stop-color="#FFD100" stop-opacity="0.92"/>
<stop offset="0.25" stop-color="#FFD100" stop-opacity="0.97"/>
<stop offset="0.31" stop-color="#FFD100" stop-opacity="0.99"/>
<stop offset="0.5" stop-color="#FFD100"/>
<stop offset="0.67" stop-color="#FFD100" stop-opacity="0.99"/>
<stop offset="0.74" stop-color="#FFD100" stop-opacity="0.96"/>
<stop offset="0.79" stop-color="#FFD100" stop-opacity="0.92"/>
<stop offset="0.83" stop-color="#FFD100" stop-opacity="0.85"/>
<stop offset="0.86" stop-color="#FFD100" stop-opacity="0.76"/>
<stop offset="0.9" stop-color="#FFD100" stop-opacity="0.65"/>
<stop offset="0.93" stop-color="#FFD100" stop-opacity="0.52"/>
<stop offset="0.95" stop-color="#FFD100" stop-opacity="0.37"/>
<stop offset="0.98" stop-color="#FFD100" stop-opacity="0.2"/>
<stop offset="1" stop-color="#FFD100" stop-opacity="0"/>
</linearGradient>
</defs>
</svg>
