<svg width="1080" height="1711" viewBox="0 0 1080 1711" fill="none" xmlns="http://www.w3.org/2000/svg">
<path d="M1076.19 185.55C1076.42 174.26 1071.51 166.11 1064.19 159.95C1064.47 146.95 1065.13 130.22 1064.04 129.13C1065.11 128.84 1065.73 128.44 1065.84 127.89C1065.98 126.855 1065.88 125.8 1065.55 124.81H1063.3C1062.59 114.06 1063.63 87.02 1063.97 78.81C1065.09 78.53 1065.73 78.12 1065.84 77.56C1065.98 76.5247 1065.88 75.4704 1065.55 74.48H1064.1C1064.1 68.01 1064.1 47.3 1061.32 44.84C1058.38 42.19 1058.62 23.66 1057.87 17.39C1057.11 23.66 1057.98 42.29 1054.41 44.84C1051.66 46.84 1051.59 67.93 1051.64 74.48H1050.14C1049.83 75.449 1049.75 76.4756 1049.91 77.48C1050.01 77.98 1050.69 78.38 1051.76 78.68C1052.09 86.74 1053.15 114.02 1052.43 124.83H1050.14C1049.83 125.799 1049.75 126.826 1049.91 127.83C1050.01 128.33 1050.7 128.73 1051.78 129.04C1051.75 129.101 1051.71 129.159 1051.66 129.21C1050.79 130.08 1051.03 140.91 1051.31 151.86C1036.6 144.69 1019.4 141.24 1011.69 136.58C1012.35 135.801 1012.7 134.81 1012.69 133.79C1012.69 132.954 1012.44 132.136 1011.99 131.436C1011.53 130.737 1010.88 130.186 1010.11 129.85L1009.5 113.53C1010.18 113.298 1010.77 112.852 1011.18 112.259C1011.58 111.667 1011.79 110.959 1011.77 110.24C1011.74 109.521 1011.48 108.829 1011.03 108.267C1010.58 107.705 1009.97 107.303 1009.27 107.12L1008.74 92.84C1009.29 92.7544 1009.78 92.4655 1010.13 92.0309C1010.47 91.5964 1010.64 91.0482 1010.59 90.4959C1010.55 89.9436 1010.3 89.4279 1009.89 89.0516C1009.49 88.6754 1008.95 88.4664 1008.4 88.4664C1007.85 88.4664 1007.31 88.6754 1006.91 89.0516C1006.5 89.4279 1006.25 89.9436 1006.21 90.4959C1006.16 91.0482 1006.33 91.5964 1006.67 92.0309C1007.02 92.4655 1007.51 92.7544 1008.06 92.84L1007.53 107.11C1006.83 107.291 1006.21 107.691 1005.76 108.251C1005.31 108.812 1005.05 109.503 1005.02 110.222C1005 110.941 1005.2 111.65 1005.61 112.244C1006.01 112.838 1006.6 113.286 1007.28 113.52L1006.67 129.84C1006.05 130.109 1005.51 130.518 1005.08 131.035C1004.65 131.551 1004.35 132.161 1004.2 132.815C1004.05 133.469 1004.06 134.149 1004.22 134.802C1004.37 135.454 1004.68 136.059 1005.12 136.57C999.51 139.96 988.86 142.72 977.79 146.74C972.41 131.9 959.79 119.36 935.32 109.51C914.84 101.28 907.97 89.14 905.79 83.43C909.08 83.06 911.57 81.43 911.57 79.52C911.57 77.61 909.38 76.19 906.38 75.7L905.9 62.75C906.9 62.44 907.57 61.87 907.57 61.2C907.57 60.53 906.84 59.91 905.79 59.62L905.32 46.94C911.218 48.1919 917.366 47.4335 922.783 44.7857C928.2 42.1379 932.575 37.753 935.21 32.33C930.49 36.3338 924.538 38.5945 918.35 38.7335C912.163 38.8726 906.115 36.8815 901.22 33.0938C896.325 29.306 892.88 23.9516 891.462 17.927C890.044 11.9024 890.739 5.57351 893.43 0C889.696 3.20928 886.911 7.37844 885.376 12.0564C883.84 16.7344 883.613 21.7432 884.719 26.5409C885.825 31.3386 888.222 35.7425 891.65 39.2763C895.079 42.8101 899.408 45.3392 904.17 46.59L903.4 59.44C902.1 59.67 901.15 60.34 901.15 61.13C901.15 61.92 902 62.52 903.2 62.78L902.43 75.62C899.43 76.09 897.15 77.62 897.15 79.45C897.15 81.45 899.81 83.1 903.28 83.39C901.08 89.11 894.2 101.22 873.75 109.44C857.19 116.1 846.07 124 838.94 133C839.14 124.85 839.24 117.44 838.59 116.78C838.586 116.764 838.586 116.746 838.59 116.73C839.49 116.5 840 116.16 840.09 115.73C840.208 114.866 840.126 113.987 839.85 113.16H837.98C837.39 104.23 838.26 81.75 838.54 74.92C839.47 74.69 840 74.35 840.09 73.92C840.209 73.0596 840.126 72.1834 839.85 71.36H838.6C838.6 65.98 838.6 48.77 836.3 46.72C833.85 44.52 834.05 29.11 833.42 23.9C832.8 29.11 833.52 44.6 830.55 46.72C828.26 48.36 828.21 65.92 828.25 71.36H827C826.747 72.1646 826.682 73.0164 826.81 73.85C826.89 74.26 827.46 74.59 828.35 74.85C828.63 81.54 829.5 104.22 828.91 113.2H827C826.747 114.005 826.682 114.856 826.81 115.69C826.89 116.1 827.46 116.44 828.36 116.69C828.337 116.744 828.303 116.791 828.26 116.83C826.81 118.29 829.1 153.08 827.79 155.18C827.218 156.591 826.919 158.098 826.91 159.62C824.257 158.23 821.413 157.239 818.47 156.68L817 153.78C816.869 153.524 816.67 153.309 816.425 153.159C816.18 153.009 815.898 152.93 815.61 152.93H814.25L813.96 145.76C814.336 145.597 814.657 145.327 814.883 144.984C815.108 144.641 815.229 144.24 815.23 143.83C815.235 143.388 815.099 142.956 814.842 142.596C814.585 142.236 814.22 141.968 813.8 141.83L813.48 133.9C814.467 134.127 815.493 134.127 816.48 133.9C818.008 133.573 819.379 132.738 820.37 131.53C820.166 131.594 819.959 131.647 819.75 131.69C818.369 131.973 816.934 131.824 815.641 131.263C814.347 130.702 813.258 129.756 812.522 128.554C811.785 127.352 811.437 125.952 811.524 124.545C811.612 123.138 812.13 121.792 813.01 120.69C811.605 121.13 810.379 122.01 809.513 123.2C808.646 124.39 808.186 125.827 808.199 127.3C808.213 128.772 808.699 130.2 809.587 131.374C810.475 132.549 811.717 133.406 813.13 133.82L812.6 141.82C812.16 141.92 811.764 142.159 811.472 142.502C811.179 142.845 811.005 143.273 810.976 143.723C810.947 144.173 811.064 144.62 811.309 144.998C811.555 145.376 811.917 145.664 812.34 145.82L811.87 152.98H810.68C810.392 152.981 810.11 153.058 809.862 153.204C809.615 153.35 809.41 153.559 809.27 153.81L807.79 156.5C802.271 157.389 797.101 159.772 792.84 163.39V137.82H792.7C791.54 99.1 757.7 99.33 749.64 94.82C745.74 92.63 743.26 88.82 741.73 85.41C742.107 85.0716 742.391 84.6435 742.558 84.1654C742.724 83.6873 742.767 83.1749 742.682 82.6759C742.597 82.1768 742.388 81.7073 742.073 81.3111C741.757 80.9149 741.347 80.6049 740.88 80.41L740.45 68.81C740.932 68.6441 741.348 68.3278 741.637 67.9075C741.926 67.4873 742.072 66.9854 742.054 66.4758C742.036 65.9661 741.855 65.4758 741.538 65.0768C741.22 64.6779 740.783 64.3916 740.29 64.26L739.87 53.12L739.46 53.21L739.05 64.21C738.557 64.3404 738.119 64.6258 737.8 65.024C737.481 65.4223 737.299 65.9124 737.28 66.4221C737.261 66.9317 737.406 67.4341 737.694 67.855C737.982 68.2759 738.398 68.5932 738.88 68.76L738.45 80.35C737.905 80.5877 737.442 80.9793 737.117 81.4768C736.792 81.9742 736.619 82.5558 736.62 83.15C736.627 83.8914 736.909 84.6039 737.41 85.15C735.89 88.59 733.41 92.53 729.41 94.76C721.25 99.33 686.32 99.01 686.32 139.76H686.44V157.81C684.266 154.35 681.403 151.373 678.029 149.066C674.656 146.759 670.844 145.171 666.83 144.4L665.42 141.66C665.292 141.413 665.098 141.205 664.86 141.061C664.622 140.916 664.349 140.84 664.07 140.84H662.76L662.48 133.89C662.865 133.736 663.192 133.467 663.417 133.119C663.641 132.771 663.753 132.362 663.735 131.948C663.718 131.535 663.572 131.136 663.319 130.809C663.065 130.481 662.716 130.241 662.32 130.12L662.01 122.44C662.961 122.656 663.949 122.656 664.9 122.44C666.379 122.123 667.707 121.316 668.67 120.15C668.47 120.21 668.28 120.26 668.08 120.3C666.734 120.589 665.331 120.452 664.066 119.909C662.801 119.365 661.736 118.442 661.019 117.267C660.301 116.092 659.967 114.722 660.062 113.349C660.158 111.975 660.677 110.665 661.55 109.6C660.186 110.022 658.994 110.873 658.151 112.026C657.308 113.179 656.86 114.573 656.872 116.001C656.885 117.429 657.357 118.815 658.22 119.953C659.082 121.092 660.289 121.922 661.66 122.32L661.15 130.04C660.728 130.133 660.347 130.361 660.065 130.688C659.783 131.016 659.615 131.426 659.585 131.858C659.556 132.289 659.667 132.718 659.903 133.081C660.138 133.444 660.484 133.721 660.89 133.87L660.44 140.8H659.29C659.012 140.799 658.74 140.873 658.501 141.014C658.261 141.155 658.064 141.357 657.93 141.6L656.49 144.21C650.913 145.117 645.709 147.592 641.486 151.346C637.263 155.1 634.195 159.978 632.64 165.41C626.64 162.78 620.03 161.35 616.94 159.48C617.233 159.137 617.396 158.701 617.4 158.25C617.398 157.881 617.29 157.52 617.088 157.211C616.885 156.902 616.598 156.659 616.26 156.51L615.99 149.3C616.292 149.2 616.553 149.005 616.734 148.744C616.916 148.483 617.008 148.17 616.997 147.853C616.985 147.535 616.871 147.229 616.672 146.982C616.472 146.734 616.198 146.558 615.89 146.48L615.65 140.16C615.885 140.12 616.097 139.997 616.25 139.813C616.402 139.63 616.483 139.398 616.48 139.16C616.48 138.895 616.375 138.64 616.187 138.453C616 138.265 615.745 138.16 615.48 138.16C615.215 138.16 614.96 138.265 614.773 138.453C614.585 138.64 614.48 138.895 614.48 139.16C614.477 139.4 614.56 139.633 614.714 139.816C614.868 140 615.083 140.122 615.32 140.16L615.08 146.48C614.773 146.56 614.5 146.737 614.301 146.985C614.102 147.232 613.988 147.537 613.976 147.854C613.964 148.171 614.054 148.484 614.233 148.746C614.412 149.008 614.67 149.206 614.97 149.31L614.7 156.51C614.361 156.658 614.073 156.901 613.871 157.21C613.668 157.519 613.56 157.881 613.56 158.25C613.564 158.701 613.727 159.137 614.02 159.48C608.95 162.55 594.49 164.48 588.35 172.41V143.52H581.75C581.75 129.05 575.38 117.18 567.25 115.94C567.26 115.844 567.26 115.746 567.25 115.65C567.247 115.411 567.179 115.177 567.052 114.974C566.925 114.771 566.744 114.607 566.53 114.5L566.23 100.77H565.88L565.39 114.49C565.172 114.595 564.987 114.76 564.858 114.965C564.729 115.17 564.66 115.408 564.66 115.65C564.655 115.737 564.655 115.823 564.66 115.91C556.41 116.91 549.89 128.91 549.89 143.52H543.29V163.63C542.095 162.321 540.816 161.091 539.46 159.95C539.69 148.77 540.21 134.87 539.66 130.48V129C540.49 128.72 540.97 128.36 541.06 127.88C541.203 126.845 541.104 125.79 540.77 124.8H539.53C539.571 123.912 539.41 123.027 539.06 122.21C539.057 122.19 539.057 122.17 539.06 122.15C540.13 121.87 540.75 121.46 540.86 120.91C541.003 119.875 540.904 118.82 540.57 117.83H538.34C538.2 105.14 538.95 85.57 539.24 78.83C540.35 78.55 540.99 78.14 541.1 77.58C541.243 76.5447 541.144 75.4904 540.81 74.5H539.4C539.4 73.76 539.4 72.83 539.4 71.76C540.29 71.48 540.8 71.11 540.9 70.61C541.043 69.5747 540.944 68.5204 540.61 67.53H539.37C539.37 64.9 539.24 61.95 539.1 59.06C538.92 50.55 538.31 39.64 536.38 37.9C533.44 35.25 533.68 16.71 532.93 10.44C532.17 16.71 533.04 35.34 529.47 37.9C526.72 39.9 526.65 60.99 526.7 67.53H525.21C524.894 68.4969 524.809 69.5242 524.96 70.53C525.07 71.02 525.75 71.42 526.82 71.73C526.82 72.49 526.89 73.42 526.93 74.5H525.45C525.138 75.4677 525.056 76.4949 525.21 77.5C525.31 78 525.99 78.4 527.06 78.7C527.12 80.05 527.19 81.95 527.28 84.21C527.64 95.57 527.98 110.53 527.49 117.88H525.21C524.894 118.847 524.809 119.874 524.96 120.88C525.07 121.37 525.75 121.78 526.84 122.08L526.72 122.26C526.37 123.077 526.206 123.962 526.24 124.85H525.45C525.138 125.818 525.056 126.845 525.21 127.85C525.28 128.18 525.6 128.46 526.12 128.71C526.06 134.71 526.35 143.83 526.53 151.85C511.84 144.7 494.68 141.25 487 136.6C487.436 136.089 487.745 135.484 487.905 134.832C488.064 134.179 488.069 133.499 487.918 132.845C487.768 132.191 487.466 131.581 487.037 131.065C486.609 130.548 486.065 130.139 485.45 129.87L484.85 113.55C485.525 113.311 486.106 112.863 486.509 112.27C486.911 111.678 487.114 110.972 487.087 110.257C487.06 109.541 486.805 108.853 486.36 108.292C485.914 107.731 485.301 107.328 484.61 107.14L484.08 92.86C484.627 92.7744 485.122 92.4855 485.466 92.0509C485.809 91.6164 485.976 91.0682 485.933 90.5159C485.89 89.9636 485.641 89.4479 485.234 89.0716C484.828 88.6954 484.294 88.4864 483.74 88.4864C483.186 88.4864 482.652 88.6954 482.246 89.0716C481.839 89.4479 481.59 89.9636 481.547 90.5159C481.504 91.0682 481.671 91.6164 482.014 92.0509C482.358 92.4855 482.853 92.7744 483.4 92.86L482.87 107C482.174 107.182 481.555 107.583 481.104 108.144C480.654 108.705 480.396 109.397 480.369 110.116C480.342 110.835 480.548 111.544 480.955 112.137C481.362 112.73 481.949 113.177 482.63 113.41L482 129.77C481.385 130.039 480.841 130.448 480.413 130.965C479.984 131.481 479.682 132.091 479.532 132.745C479.381 133.399 479.386 134.079 479.545 134.732C479.705 135.384 480.014 135.989 480.45 136.5C474.84 139.89 464.19 142.65 453.12 146.67C447.74 131.83 435.12 119.29 410.65 109.44C390.18 101.21 383.3 89.07 381.12 83.36C384.41 82.99 386.9 81.36 386.9 79.45C386.9 77.54 384.71 76.12 381.72 75.63L381.24 62.68C382.24 62.37 382.9 61.8 382.9 61.13C382.9 60.46 382.17 59.84 381.12 59.55L380.65 46.87C386.548 48.1219 392.696 47.3635 398.113 44.7157C403.53 42.0679 407.905 37.683 410.54 32.26C405.823 36.2454 399.883 38.4937 393.71 38.6301C387.536 38.7664 381.503 36.7826 376.615 33.0093C371.727 29.236 368.28 23.9013 366.849 17.8946C365.418 11.8878 366.089 5.57198 368.75 0C365.016 3.20998 362.231 7.37987 360.697 12.0585C359.162 16.7371 358.936 21.7464 360.043 26.5442C361.15 31.3421 363.548 35.7459 366.977 39.2791C370.407 42.8123 374.737 45.3405 379.5 46.59L378.72 59.44C377.42 59.67 376.47 60.34 376.47 61.13C376.47 61.92 377.33 62.52 378.47 62.78L377.7 75.62C374.7 76.09 372.42 77.62 372.42 79.45C372.42 81.45 375.08 83.1 378.55 83.39C376.35 89.11 369.47 101.22 349.03 109.44C332.51 116.1 321.39 124 314.26 133C314.46 124.85 314.56 117.44 313.91 116.78V116.73C314.81 116.5 315.32 116.16 315.41 115.73C315.528 114.866 315.446 113.987 315.17 113.16H313.31C312.72 104.23 313.58 81.75 313.86 74.92C314.79 74.69 315.32 74.35 315.41 73.92C315.529 73.0596 315.446 72.1834 315.17 71.36H313.96C313.96 65.98 313.96 48.77 311.66 46.72C309.21 44.52 309.42 29.11 308.79 23.9C308.16 29.11 308.88 44.6 305.91 46.72C303.62 48.36 303.57 65.92 303.61 71.36H302.37C302.111 72.1633 302.043 73.0157 302.17 73.85C302.26 74.26 302.82 74.59 303.71 74.85C303.99 81.54 304.86 104.22 304.27 113.2H302.37C302.111 114.003 302.043 114.856 302.17 115.69C302.26 116.1 302.82 116.44 303.72 116.69C303.697 116.741 303.667 116.788 303.63 116.83C302.17 118.29 304.46 153.08 303.15 155.18C302.578 156.591 302.279 158.098 302.27 159.62C299.617 158.23 296.773 157.239 293.83 156.68L292.37 153.85C292.24 153.593 292.041 153.378 291.796 153.228C291.55 153.078 291.268 152.999 290.98 153H289.63L289.33 145.83C289.706 145.667 290.027 145.397 290.253 145.054C290.478 144.711 290.599 144.31 290.6 143.9C290.605 143.458 290.469 143.026 290.212 142.666C289.955 142.306 289.59 142.038 289.17 141.9L288.85 133.97C289.837 134.197 290.863 134.197 291.85 133.97C293.379 133.646 294.751 132.81 295.74 131.6C295.536 131.664 295.329 131.717 295.12 131.76C293.739 132.043 292.304 131.894 291.011 131.333C289.717 130.772 288.628 129.826 287.892 128.624C287.155 127.422 286.807 126.022 286.894 124.615C286.982 123.208 287.5 121.862 288.38 120.76C286.975 121.2 285.749 122.08 284.883 123.27C284.016 124.46 283.556 125.897 283.569 127.37C283.583 128.842 284.069 130.27 284.957 131.444C285.845 132.619 287.087 133.476 288.5 133.89L287.97 141.89C287.53 141.99 287.134 142.229 286.842 142.572C286.549 142.915 286.375 143.343 286.346 143.793C286.317 144.243 286.434 144.69 286.679 145.068C286.925 145.446 287.287 145.734 287.71 145.89L287.24 153.05H286C285.714 153.049 285.432 153.126 285.186 153.272C284.939 153.418 284.737 153.628 284.6 153.88L283.11 156.57C277.594 157.457 272.426 159.84 268.17 163.46V137.82H268C266.84 99.1 233 99.33 224.94 94.82C221.04 92.63 218.56 88.82 217.03 85.41C217.345 85.1282 217.597 84.7829 217.769 84.3969C217.942 84.0108 218.031 83.5928 218.03 83.17C218.036 82.5772 217.867 81.9958 217.543 81.4992C217.219 81.0026 216.755 80.6132 216.21 80.38L215.78 68.78C216.262 68.6132 216.678 68.2959 216.966 67.875C217.254 67.4541 217.399 66.9517 217.38 66.442C217.361 65.9324 217.179 65.4423 216.86 65.044C216.541 64.6458 216.103 64.3604 215.61 64.23L215.19 53.09L214.78 53.18L214.37 64.18C213.877 64.3104 213.439 64.5958 213.12 64.994C212.801 65.3923 212.619 65.8824 212.6 66.3921C212.581 66.9017 212.726 67.4041 213.014 67.825C213.302 68.2459 213.718 68.5632 214.2 68.73L213.77 80.32C213.225 80.5577 212.762 80.9493 212.437 81.4468C212.112 81.9442 211.939 82.5258 211.94 83.12C211.947 83.8614 212.229 84.5739 212.73 85.12C211.21 88.56 208.73 92.5 204.73 94.73C196.56 99.3 161.63 98.98 161.63 139.73H161.75V157.78C159.578 154.32 156.716 151.344 153.345 149.037C149.973 146.73 146.162 145.141 142.15 144.37L140.73 141.63C140.602 141.383 140.408 141.175 140.17 141.031C139.932 140.886 139.659 140.81 139.38 140.81H138.07L137.79 133.86C138.174 133.706 138.502 133.437 138.727 133.089C138.951 132.741 139.063 132.332 139.045 131.918C139.028 131.505 138.882 131.106 138.629 130.779C138.375 130.451 138.026 130.211 137.63 130.09L137.32 122.41C138.271 122.626 139.259 122.626 140.21 122.41C141.689 122.095 143.018 121.288 143.98 120.12C143.78 120.18 143.59 120.23 143.39 120.27C142.044 120.559 140.641 120.422 139.376 119.879C138.111 119.335 137.046 118.412 136.329 117.237C135.611 116.062 135.277 114.692 135.372 113.319C135.468 111.945 135.987 110.635 136.86 109.57C135.496 109.992 134.304 110.843 133.461 111.996C132.618 113.149 132.17 114.543 132.182 115.971C132.195 117.399 132.667 118.785 133.53 119.923C134.392 121.062 135.599 121.892 136.97 122.29L136.46 130.01C136.027 130.12 135.642 130.371 135.369 130.725C135.095 131.078 134.948 131.513 134.95 131.96C134.945 132.363 135.061 132.758 135.284 133.093C135.507 133.429 135.827 133.689 136.2 133.84L135.75 140.77H134.6C134.322 140.769 134.05 140.843 133.811 140.984C133.571 141.125 133.374 141.327 133.24 141.57L131.8 144.18C126.223 145.087 121.019 147.562 116.796 151.316C112.573 155.07 109.505 159.948 107.95 165.38C101.95 162.75 95.34 161.32 92.25 159.45C92.5431 159.107 92.706 158.671 92.71 158.22C92.7085 157.851 92.6 157.49 92.3977 157.181C92.1953 156.872 91.9079 156.629 91.57 156.48L91.3 149.27C91.6017 149.17 91.8629 148.975 92.0444 148.714C92.2259 148.453 92.3179 148.14 92.3067 147.823C92.2954 147.505 92.1815 147.199 91.9819 146.952C91.7824 146.704 91.5081 146.528 91.2 146.45L91 140.33C91.2348 140.29 91.4474 140.167 91.5996 139.983C91.7518 139.8 91.8335 139.568 91.83 139.33C91.83 139.065 91.7246 138.81 91.5371 138.623C91.3496 138.435 91.0952 138.33 90.83 138.33C90.5648 138.33 90.3104 138.435 90.1229 138.623C89.9354 138.81 89.83 139.065 89.83 139.33C89.8269 139.57 89.91 139.803 90.0642 139.986C90.2184 140.17 90.4334 140.292 90.67 140.33L90.43 146.65C90.1234 146.732 89.8511 146.91 89.6533 147.158C89.4556 147.406 89.3428 147.711 89.3316 148.028C89.3204 148.345 89.4113 148.657 89.5911 148.919C89.7709 149.18 90.0299 149.377 90.33 149.48L90.06 156.68C89.7187 156.825 89.4277 157.068 89.2233 157.377C89.0188 157.686 88.9098 158.049 88.91 158.42C88.914 158.871 89.0769 159.307 89.37 159.65C84.3 162.72 69.84 164.65 63.7 172.58V143.52H57.1C57.1 129.05 50.73 117.18 42.6 115.94C42.6104 115.844 42.6104 115.746 42.6 115.65C42.5998 115.41 42.5322 115.175 42.4049 114.972C42.2776 114.768 42.0957 114.605 41.88 114.5L41.58 100.77H41.23L40.74 114.49C40.5216 114.595 40.3373 114.76 40.2082 114.965C40.0791 115.17 40.0104 115.408 40.01 115.65C40.0047 115.737 40.0047 115.823 40.01 115.91C31.76 116.91 25.24 128.91 25.24 143.52H18.64V185.52H16.23C16.41 178.52 16.31 170.32 15.02 168.27C13.45 165.74 16.21 123.89 14.46 122.14C14.4571 122.12 14.4571 122.1 14.46 122.08C15.53 121.8 16.15 121.39 16.26 120.84C16.4031 119.805 16.3038 118.75 15.97 117.76H13.69C12.98 107.02 14.01 79.97 14.35 71.76C15.47 71.47 16.11 71.06 16.22 70.5C16.3631 69.4647 16.2638 68.4104 15.93 67.42H14.48C14.48 60.96 14.43 40.24 11.7 37.79C8.77 35.14 9 16.6 8.25 10.33C7.49 16.6 8.37 35.23 4.79 37.79C2 39.79 2 60.91 2 67.45H0.53C0.219669 68.4181 0.137527 69.4449 0.29 70.45C0.39 70.94 1.07 71.34 2.14 71.65C2.47 79.65 3.53 106.99 2.81 117.79H0.53C0.219669 118.758 0.137527 119.785 0.29 120.79C0.39 121.28 1.08 121.69 2.16 121.99C2.1247 122.053 2.08458 122.113 2.04 122.17C0.29 123.92 3.04 165.77 1.47 168.3C0.190001 170.3 0.0900002 178.54 0.26 185.55H-7V1953H1087.29V185.55H1076.19Z" fill="url(#paint0_linear_1_1904)"/>
<defs>
<linearGradient id="paint0_linear_1_1904" x1="-430.335" y1="620.618" x2="1324.71" y2="1649.51" gradientUnits="userSpaceOnUse">
<stop offset="0.075" stop-color="#14989C"/>
<stop offset="1"/>
</linearGradient>
</defs>
</svg>
