<svg width="906" height="349" viewBox="0 0 906 349" fill="none" xmlns="http://www.w3.org/2000/svg">
<g filter="url(#filter0_dddddd_1_1983)">
<path d="M187.735 174.488L181.767 175.078C177.834 175.63 174.748 178.984 174.239 183.258L173.663 189.744C173.663 189.818 173.561 189.818 173.527 189.744C173.425 188.86 173.188 185.248 172.95 183.258C172.442 179.021 169.356 175.63 165.422 175.078L159.454 174.451C159.386 174.451 159.386 174.341 159.454 174.304L165.422 173.677C169.356 173.125 172.442 169.771 172.95 165.497C173.188 163.507 173.425 159.895 173.527 159.011C173.527 158.937 173.629 158.937 173.663 159.011L174.239 165.497C174.748 169.771 177.834 173.125 181.767 173.677L187.735 174.304C187.803 174.341 187.803 174.451 187.735 174.488Z" fill="#D3FFFF"/>
</g>
<g filter="url(#filter1_dddddd_1_1983)">
<path d="M160.201 158.127L155.988 158.551C153.23 158.921 151.023 161.251 150.672 164.162L150.271 168.609C150.271 168.662 150.171 168.662 150.171 168.609C150.12 168.027 149.92 165.539 149.769 164.162C149.418 161.251 147.212 158.921 144.453 158.551L140.241 158.127C140.191 158.127 140.191 158.021 140.241 158.021L144.453 157.598C147.212 157.227 149.418 154.898 149.769 151.986C149.92 150.609 150.07 148.121 150.171 147.539C150.171 147.486 150.271 147.486 150.271 147.539L150.672 151.986C151.023 154.898 153.23 157.227 155.988 157.598L160.201 158.021C160.251 158.074 160.251 158.127 160.201 158.127Z" fill="#D3FFFF"/>
</g>
<g filter="url(#filter2_dddddd_1_1983)">
<path d="M176.905 140.47L173.928 140.747C171.982 140.984 170.434 142.527 170.156 144.504L169.878 147.471C169.878 147.51 169.839 147.51 169.799 147.471C169.759 147.075 169.64 145.414 169.521 144.504C169.283 142.566 167.735 141.024 165.75 140.747L162.773 140.47C162.733 140.47 162.733 140.431 162.773 140.391L165.75 140.154C167.695 139.917 169.243 138.374 169.521 136.396C169.64 135.487 169.759 133.826 169.799 133.43C169.799 133.391 169.839 133.391 169.878 133.43L170.156 136.396C170.395 138.334 171.943 139.877 173.928 140.154L176.905 140.431C176.945 140.431 176.945 140.47 176.905 140.47Z" fill="#D3FFFF"/>
</g>
<g filter="url(#filter3_dddddd_1_1983)">
<path d="M718.391 174.488L724.359 175.078C728.293 175.631 731.379 178.984 731.887 183.259L732.464 189.745C732.464 189.818 732.566 189.818 732.6 189.745C732.701 188.86 732.939 185.249 733.176 183.259C733.685 179.021 736.771 175.631 740.704 175.078L746.673 174.452C746.74 174.452 746.74 174.341 746.673 174.304L740.704 173.678C736.771 173.125 733.685 169.772 733.176 165.497C732.939 163.507 732.701 159.896 732.6 159.011C732.6 158.938 732.498 158.938 732.464 159.011L731.887 165.497C731.379 169.772 728.293 173.125 724.359 173.678L718.391 174.304C718.323 174.341 718.323 174.452 718.391 174.488Z" fill="#D3FFFF"/>
</g>
<g filter="url(#filter4_dddddd_1_1983)">
<path d="M739.248 151.078L743.461 151.501C746.219 151.872 748.426 154.201 748.777 157.113L749.178 161.56C749.178 161.613 749.279 161.613 749.279 161.56C749.329 160.978 749.529 158.49 749.68 157.113C750.031 154.201 752.237 151.872 754.996 151.501L759.208 151.078C759.259 151.078 759.259 150.972 759.208 150.972L754.996 150.548C752.237 150.178 750.031 147.848 749.68 144.937C749.529 143.56 749.379 141.072 749.279 140.49C749.279 140.437 749.178 140.437 749.178 140.49L748.777 144.937C748.426 147.848 746.219 150.178 743.461 150.548L739.248 150.972C739.198 151.025 739.198 151.078 739.248 151.078Z" fill="#D3FFFF"/>
</g>
<g filter="url(#filter5_dddddd_1_1983)">
<path d="M715.033 143.995L718.01 144.272C719.955 144.509 721.503 146.051 721.781 148.029L722.059 150.995C722.059 151.035 722.099 151.035 722.138 150.995C722.178 150.6 722.297 148.939 722.416 148.029C722.654 146.091 724.203 144.548 726.187 144.272L729.165 143.995C729.204 143.995 729.204 143.955 729.165 143.916L726.187 143.678C724.242 143.441 722.694 141.898 722.416 139.921C722.297 139.011 722.178 137.35 722.138 136.955C722.138 136.915 722.099 136.915 722.059 136.955L721.781 139.921C721.543 141.859 719.995 143.401 718.01 143.678L715.033 143.955C714.993 143.955 714.993 143.995 715.033 143.995Z" fill="#D3FFFF"/>
</g>
<defs>
<filter id="filter0_dddddd_1_1983" x="0.643127" y="0.195557" width="345.903" height="348.364" filterUnits="userSpaceOnUse" color-interpolation-filters="sRGB">
<feFlood flood-opacity="0" result="BackgroundImageFix"/>
<feColorMatrix in="SourceAlpha" type="matrix" values="0 0 0 0 0 0 0 0 0 0 0 0 0 0 0 0 0 0 127 0" result="hardAlpha"/>
<feOffset/>
<feGaussianBlur stdDeviation="1.89"/>
<feColorMatrix type="matrix" values="0 0 0 0 1 0 0 0 0 1 0 0 0 0 1 0 0 0 1 0"/>
<feBlend mode="normal" in2="BackgroundImageFix" result="effect1_dropShadow_1_1983"/>
<feColorMatrix in="SourceAlpha" type="matrix" values="0 0 0 0 0 0 0 0 0 0 0 0 0 0 0 0 0 0 127 0" result="hardAlpha"/>
<feOffset/>
<feGaussianBlur stdDeviation="3.78"/>
<feColorMatrix type="matrix" values="0 0 0 0 1 0 0 0 0 1 0 0 0 0 1 0 0 0 1 0"/>
<feBlend mode="normal" in2="effect1_dropShadow_1_1983" result="effect2_dropShadow_1_1983"/>
<feColorMatrix in="SourceAlpha" type="matrix" values="0 0 0 0 0 0 0 0 0 0 0 0 0 0 0 0 0 0 127 0" result="hardAlpha"/>
<feOffset/>
<feGaussianBlur stdDeviation="13.23"/>
<feColorMatrix type="matrix" values="0 0 0 0 1 0 0 0 0 1 0 0 0 0 1 0 0 0 1 0"/>
<feBlend mode="normal" in2="effect2_dropShadow_1_1983" result="effect3_dropShadow_1_1983"/>
<feColorMatrix in="SourceAlpha" type="matrix" values="0 0 0 0 0 0 0 0 0 0 0 0 0 0 0 0 0 0 127 0" result="hardAlpha"/>
<feOffset/>
<feGaussianBlur stdDeviation="26.46"/>
<feColorMatrix type="matrix" values="0 0 0 0 1 0 0 0 0 1 0 0 0 0 1 0 0 0 1 0"/>
<feBlend mode="normal" in2="effect3_dropShadow_1_1983" result="effect4_dropShadow_1_1983"/>
<feColorMatrix in="SourceAlpha" type="matrix" values="0 0 0 0 0 0 0 0 0 0 0 0 0 0 0 0 0 0 127 0" result="hardAlpha"/>
<feOffset/>
<feGaussianBlur stdDeviation="45.36"/>
<feColorMatrix type="matrix" values="0 0 0 0 1 0 0 0 0 1 0 0 0 0 1 0 0 0 1 0"/>
<feBlend mode="normal" in2="effect4_dropShadow_1_1983" result="effect5_dropShadow_1_1983"/>
<feColorMatrix in="SourceAlpha" type="matrix" values="0 0 0 0 0 0 0 0 0 0 0 0 0 0 0 0 0 0 127 0" result="hardAlpha"/>
<feOffset/>
<feGaussianBlur stdDeviation="79.38"/>
<feColorMatrix type="matrix" values="0 0 0 0 1 0 0 0 0 1 0 0 0 0 1 0 0 0 1 0"/>
<feBlend mode="normal" in2="effect5_dropShadow_1_1983" result="effect6_dropShadow_1_1983"/>
<feBlend mode="normal" in="SourceGraphic" in2="effect6_dropShadow_1_1983" result="shape"/>
</filter>
<filter id="filter1_dddddd_1_1983" x="31.3391" y="38.6353" width="237.763" height="238.878" filterUnits="userSpaceOnUse" color-interpolation-filters="sRGB">
<feFlood flood-opacity="0" result="BackgroundImageFix"/>
<feColorMatrix in="SourceAlpha" type="matrix" values="0 0 0 0 0 0 0 0 0 0 0 0 0 0 0 0 0 0 127 0" result="hardAlpha"/>
<feOffset/>
<feGaussianBlur stdDeviation="1.296"/>
<feColorMatrix type="matrix" values="0 0 0 0 1 0 0 0 0 1 0 0 0 0 1 0 0 0 1 0"/>
<feBlend mode="normal" in2="BackgroundImageFix" result="effect1_dropShadow_1_1983"/>
<feColorMatrix in="SourceAlpha" type="matrix" values="0 0 0 0 0 0 0 0 0 0 0 0 0 0 0 0 0 0 127 0" result="hardAlpha"/>
<feOffset/>
<feGaussianBlur stdDeviation="2.592"/>
<feColorMatrix type="matrix" values="0 0 0 0 1 0 0 0 0 1 0 0 0 0 1 0 0 0 1 0"/>
<feBlend mode="normal" in2="effect1_dropShadow_1_1983" result="effect2_dropShadow_1_1983"/>
<feColorMatrix in="SourceAlpha" type="matrix" values="0 0 0 0 0 0 0 0 0 0 0 0 0 0 0 0 0 0 127 0" result="hardAlpha"/>
<feOffset/>
<feGaussianBlur stdDeviation="9.072"/>
<feColorMatrix type="matrix" values="0 0 0 0 1 0 0 0 0 1 0 0 0 0 1 0 0 0 1 0"/>
<feBlend mode="normal" in2="effect2_dropShadow_1_1983" result="effect3_dropShadow_1_1983"/>
<feColorMatrix in="SourceAlpha" type="matrix" values="0 0 0 0 0 0 0 0 0 0 0 0 0 0 0 0 0 0 127 0" result="hardAlpha"/>
<feOffset/>
<feGaussianBlur stdDeviation="18.144"/>
<feColorMatrix type="matrix" values="0 0 0 0 1 0 0 0 0 1 0 0 0 0 1 0 0 0 1 0"/>
<feBlend mode="normal" in2="effect3_dropShadow_1_1983" result="effect4_dropShadow_1_1983"/>
<feColorMatrix in="SourceAlpha" type="matrix" values="0 0 0 0 0 0 0 0 0 0 0 0 0 0 0 0 0 0 127 0" result="hardAlpha"/>
<feOffset/>
<feGaussianBlur stdDeviation="31.104"/>
<feColorMatrix type="matrix" values="0 0 0 0 1 0 0 0 0 1 0 0 0 0 1 0 0 0 1 0"/>
<feBlend mode="normal" in2="effect4_dropShadow_1_1983" result="effect5_dropShadow_1_1983"/>
<feColorMatrix in="SourceAlpha" type="matrix" values="0 0 0 0 0 0 0 0 0 0 0 0 0 0 0 0 0 0 127 0" result="hardAlpha"/>
<feOffset/>
<feGaussianBlur stdDeviation="54.432"/>
<feColorMatrix type="matrix" values="0 0 0 0 1 0 0 0 0 1 0 0 0 0 1 0 0 0 1 0"/>
<feBlend mode="normal" in2="effect5_dropShadow_1_1983" result="effect6_dropShadow_1_1983"/>
<feBlend mode="normal" in="SourceGraphic" in2="effect6_dropShadow_1_1983" result="shape"/>
</filter>
<filter id="filter2_dddddd_1_1983" x="85.631" y="56.2884" width="168.416" height="168.324" filterUnits="userSpaceOnUse" color-interpolation-filters="sRGB">
<feFlood flood-opacity="0" result="BackgroundImageFix"/>
<feColorMatrix in="SourceAlpha" type="matrix" values="0 0 0 0 0 0 0 0 0 0 0 0 0 0 0 0 0 0 127 0" result="hardAlpha"/>
<feOffset/>
<feGaussianBlur stdDeviation="0.918"/>
<feColorMatrix type="matrix" values="0 0 0 0 1 0 0 0 0 1 0 0 0 0 1 0 0 0 1 0"/>
<feBlend mode="normal" in2="BackgroundImageFix" result="effect1_dropShadow_1_1983"/>
<feColorMatrix in="SourceAlpha" type="matrix" values="0 0 0 0 0 0 0 0 0 0 0 0 0 0 0 0 0 0 127 0" result="hardAlpha"/>
<feOffset/>
<feGaussianBlur stdDeviation="1.836"/>
<feColorMatrix type="matrix" values="0 0 0 0 1 0 0 0 0 1 0 0 0 0 1 0 0 0 1 0"/>
<feBlend mode="normal" in2="effect1_dropShadow_1_1983" result="effect2_dropShadow_1_1983"/>
<feColorMatrix in="SourceAlpha" type="matrix" values="0 0 0 0 0 0 0 0 0 0 0 0 0 0 0 0 0 0 127 0" result="hardAlpha"/>
<feOffset/>
<feGaussianBlur stdDeviation="6.426"/>
<feColorMatrix type="matrix" values="0 0 0 0 1 0 0 0 0 1 0 0 0 0 1 0 0 0 1 0"/>
<feBlend mode="normal" in2="effect2_dropShadow_1_1983" result="effect3_dropShadow_1_1983"/>
<feColorMatrix in="SourceAlpha" type="matrix" values="0 0 0 0 0 0 0 0 0 0 0 0 0 0 0 0 0 0 127 0" result="hardAlpha"/>
<feOffset/>
<feGaussianBlur stdDeviation="12.852"/>
<feColorMatrix type="matrix" values="0 0 0 0 1 0 0 0 0 1 0 0 0 0 1 0 0 0 1 0"/>
<feBlend mode="normal" in2="effect3_dropShadow_1_1983" result="effect4_dropShadow_1_1983"/>
<feColorMatrix in="SourceAlpha" type="matrix" values="0 0 0 0 0 0 0 0 0 0 0 0 0 0 0 0 0 0 127 0" result="hardAlpha"/>
<feOffset/>
<feGaussianBlur stdDeviation="22.032"/>
<feColorMatrix type="matrix" values="0 0 0 0 1 0 0 0 0 1 0 0 0 0 1 0 0 0 1 0"/>
<feBlend mode="normal" in2="effect4_dropShadow_1_1983" result="effect5_dropShadow_1_1983"/>
<feColorMatrix in="SourceAlpha" type="matrix" values="0 0 0 0 0 0 0 0 0 0 0 0 0 0 0 0 0 0 127 0" result="hardAlpha"/>
<feOffset/>
<feGaussianBlur stdDeviation="38.556"/>
<feColorMatrix type="matrix" values="0 0 0 0 1 0 0 0 0 1 0 0 0 0 1 0 0 0 1 0"/>
<feBlend mode="normal" in2="effect5_dropShadow_1_1983" result="effect6_dropShadow_1_1983"/>
<feBlend mode="normal" in="SourceGraphic" in2="effect6_dropShadow_1_1983" result="shape"/>
</filter>
<filter id="filter3_dddddd_1_1983" x="559.58" y="0.196045" width="345.903" height="348.364" filterUnits="userSpaceOnUse" color-interpolation-filters="sRGB">
<feFlood flood-opacity="0" result="BackgroundImageFix"/>
<feColorMatrix in="SourceAlpha" type="matrix" values="0 0 0 0 0 0 0 0 0 0 0 0 0 0 0 0 0 0 127 0" result="hardAlpha"/>
<feOffset/>
<feGaussianBlur stdDeviation="1.89"/>
<feColorMatrix type="matrix" values="0 0 0 0 1 0 0 0 0 1 0 0 0 0 1 0 0 0 1 0"/>
<feBlend mode="normal" in2="BackgroundImageFix" result="effect1_dropShadow_1_1983"/>
<feColorMatrix in="SourceAlpha" type="matrix" values="0 0 0 0 0 0 0 0 0 0 0 0 0 0 0 0 0 0 127 0" result="hardAlpha"/>
<feOffset/>
<feGaussianBlur stdDeviation="3.78"/>
<feColorMatrix type="matrix" values="0 0 0 0 1 0 0 0 0 1 0 0 0 0 1 0 0 0 1 0"/>
<feBlend mode="normal" in2="effect1_dropShadow_1_1983" result="effect2_dropShadow_1_1983"/>
<feColorMatrix in="SourceAlpha" type="matrix" values="0 0 0 0 0 0 0 0 0 0 0 0 0 0 0 0 0 0 127 0" result="hardAlpha"/>
<feOffset/>
<feGaussianBlur stdDeviation="13.23"/>
<feColorMatrix type="matrix" values="0 0 0 0 1 0 0 0 0 1 0 0 0 0 1 0 0 0 1 0"/>
<feBlend mode="normal" in2="effect2_dropShadow_1_1983" result="effect3_dropShadow_1_1983"/>
<feColorMatrix in="SourceAlpha" type="matrix" values="0 0 0 0 0 0 0 0 0 0 0 0 0 0 0 0 0 0 127 0" result="hardAlpha"/>
<feOffset/>
<feGaussianBlur stdDeviation="26.46"/>
<feColorMatrix type="matrix" values="0 0 0 0 1 0 0 0 0 1 0 0 0 0 1 0 0 0 1 0"/>
<feBlend mode="normal" in2="effect3_dropShadow_1_1983" result="effect4_dropShadow_1_1983"/>
<feColorMatrix in="SourceAlpha" type="matrix" values="0 0 0 0 0 0 0 0 0 0 0 0 0 0 0 0 0 0 127 0" result="hardAlpha"/>
<feOffset/>
<feGaussianBlur stdDeviation="45.36"/>
<feColorMatrix type="matrix" values="0 0 0 0 1 0 0 0 0 1 0 0 0 0 1 0 0 0 1 0"/>
<feBlend mode="normal" in2="effect4_dropShadow_1_1983" result="effect5_dropShadow_1_1983"/>
<feColorMatrix in="SourceAlpha" type="matrix" values="0 0 0 0 0 0 0 0 0 0 0 0 0 0 0 0 0 0 127 0" result="hardAlpha"/>
<feOffset/>
<feGaussianBlur stdDeviation="79.38"/>
<feColorMatrix type="matrix" values="0 0 0 0 1 0 0 0 0 1 0 0 0 0 1 0 0 0 1 0"/>
<feBlend mode="normal" in2="effect5_dropShadow_1_1983" result="effect6_dropShadow_1_1983"/>
<feBlend mode="normal" in="SourceGraphic" in2="effect6_dropShadow_1_1983" result="shape"/>
</filter>
<filter id="filter4_dddddd_1_1983" x="630.347" y="31.5859" width="237.763" height="238.878" filterUnits="userSpaceOnUse" color-interpolation-filters="sRGB">
<feFlood flood-opacity="0" result="BackgroundImageFix"/>
<feColorMatrix in="SourceAlpha" type="matrix" values="0 0 0 0 0 0 0 0 0 0 0 0 0 0 0 0 0 0 127 0" result="hardAlpha"/>
<feOffset/>
<feGaussianBlur stdDeviation="1.296"/>
<feColorMatrix type="matrix" values="0 0 0 0 1 0 0 0 0 1 0 0 0 0 1 0 0 0 1 0"/>
<feBlend mode="normal" in2="BackgroundImageFix" result="effect1_dropShadow_1_1983"/>
<feColorMatrix in="SourceAlpha" type="matrix" values="0 0 0 0 0 0 0 0 0 0 0 0 0 0 0 0 0 0 127 0" result="hardAlpha"/>
<feOffset/>
<feGaussianBlur stdDeviation="2.592"/>
<feColorMatrix type="matrix" values="0 0 0 0 1 0 0 0 0 1 0 0 0 0 1 0 0 0 1 0"/>
<feBlend mode="normal" in2="effect1_dropShadow_1_1983" result="effect2_dropShadow_1_1983"/>
<feColorMatrix in="SourceAlpha" type="matrix" values="0 0 0 0 0 0 0 0 0 0 0 0 0 0 0 0 0 0 127 0" result="hardAlpha"/>
<feOffset/>
<feGaussianBlur stdDeviation="9.072"/>
<feColorMatrix type="matrix" values="0 0 0 0 1 0 0 0 0 1 0 0 0 0 1 0 0 0 1 0"/>
<feBlend mode="normal" in2="effect2_dropShadow_1_1983" result="effect3_dropShadow_1_1983"/>
<feColorMatrix in="SourceAlpha" type="matrix" values="0 0 0 0 0 0 0 0 0 0 0 0 0 0 0 0 0 0 127 0" result="hardAlpha"/>
<feOffset/>
<feGaussianBlur stdDeviation="18.144"/>
<feColorMatrix type="matrix" values="0 0 0 0 1 0 0 0 0 1 0 0 0 0 1 0 0 0 1 0"/>
<feBlend mode="normal" in2="effect3_dropShadow_1_1983" result="effect4_dropShadow_1_1983"/>
<feColorMatrix in="SourceAlpha" type="matrix" values="0 0 0 0 0 0 0 0 0 0 0 0 0 0 0 0 0 0 127 0" result="hardAlpha"/>
<feOffset/>
<feGaussianBlur stdDeviation="31.104"/>
<feColorMatrix type="matrix" values="0 0 0 0 1 0 0 0 0 1 0 0 0 0 1 0 0 0 1 0"/>
<feBlend mode="normal" in2="effect4_dropShadow_1_1983" result="effect5_dropShadow_1_1983"/>
<feColorMatrix in="SourceAlpha" type="matrix" values="0 0 0 0 0 0 0 0 0 0 0 0 0 0 0 0 0 0 127 0" result="hardAlpha"/>
<feOffset/>
<feGaussianBlur stdDeviation="54.432"/>
<feColorMatrix type="matrix" values="0 0 0 0 1 0 0 0 0 1 0 0 0 0 1 0 0 0 1 0"/>
<feBlend mode="normal" in2="effect5_dropShadow_1_1983" result="effect6_dropShadow_1_1983"/>
<feBlend mode="normal" in="SourceGraphic" in2="effect6_dropShadow_1_1983" result="shape"/>
</filter>
<filter id="filter5_dddddd_1_1983" x="637.891" y="59.8128" width="168.416" height="168.324" filterUnits="userSpaceOnUse" color-interpolation-filters="sRGB">
<feFlood flood-opacity="0" result="BackgroundImageFix"/>
<feColorMatrix in="SourceAlpha" type="matrix" values="0 0 0 0 0 0 0 0 0 0 0 0 0 0 0 0 0 0 127 0" result="hardAlpha"/>
<feOffset/>
<feGaussianBlur stdDeviation="0.918"/>
<feColorMatrix type="matrix" values="0 0 0 0 1 0 0 0 0 1 0 0 0 0 1 0 0 0 1 0"/>
<feBlend mode="normal" in2="BackgroundImageFix" result="effect1_dropShadow_1_1983"/>
<feColorMatrix in="SourceAlpha" type="matrix" values="0 0 0 0 0 0 0 0 0 0 0 0 0 0 0 0 0 0 127 0" result="hardAlpha"/>
<feOffset/>
<feGaussianBlur stdDeviation="1.836"/>
<feColorMatrix type="matrix" values="0 0 0 0 1 0 0 0 0 1 0 0 0 0 1 0 0 0 1 0"/>
<feBlend mode="normal" in2="effect1_dropShadow_1_1983" result="effect2_dropShadow_1_1983"/>
<feColorMatrix in="SourceAlpha" type="matrix" values="0 0 0 0 0 0 0 0 0 0 0 0 0 0 0 0 0 0 127 0" result="hardAlpha"/>
<feOffset/>
<feGaussianBlur stdDeviation="6.426"/>
<feColorMatrix type="matrix" values="0 0 0 0 1 0 0 0 0 1 0 0 0 0 1 0 0 0 1 0"/>
<feBlend mode="normal" in2="effect2_dropShadow_1_1983" result="effect3_dropShadow_1_1983"/>
<feColorMatrix in="SourceAlpha" type="matrix" values="0 0 0 0 0 0 0 0 0 0 0 0 0 0 0 0 0 0 127 0" result="hardAlpha"/>
<feOffset/>
<feGaussianBlur stdDeviation="12.852"/>
<feColorMatrix type="matrix" values="0 0 0 0 1 0 0 0 0 1 0 0 0 0 1 0 0 0 1 0"/>
<feBlend mode="normal" in2="effect3_dropShadow_1_1983" result="effect4_dropShadow_1_1983"/>
<feColorMatrix in="SourceAlpha" type="matrix" values="0 0 0 0 0 0 0 0 0 0 0 0 0 0 0 0 0 0 127 0" result="hardAlpha"/>
<feOffset/>
<feGaussianBlur stdDeviation="22.032"/>
<feColorMatrix type="matrix" values="0 0 0 0 1 0 0 0 0 1 0 0 0 0 1 0 0 0 1 0"/>
<feBlend mode="normal" in2="effect4_dropShadow_1_1983" result="effect5_dropShadow_1_1983"/>
<feColorMatrix in="SourceAlpha" type="matrix" values="0 0 0 0 0 0 0 0 0 0 0 0 0 0 0 0 0 0 127 0" result="hardAlpha"/>
<feOffset/>
<feGaussianBlur stdDeviation="38.556"/>
<feColorMatrix type="matrix" values="0 0 0 0 1 0 0 0 0 1 0 0 0 0 1 0 0 0 1 0"/>
<feBlend mode="normal" in2="effect5_dropShadow_1_1983" result="effect6_dropShadow_1_1983"/>
<feBlend mode="normal" in="SourceGraphic" in2="effect6_dropShadow_1_1983" result="shape"/>
</filter>
</defs>
</svg>
